<?xml version="1.0" encoding="UTF-8"?>
<svg xmlns="http://www.w3.org/2000/svg" width="1200" height="900" viewBox="0 0 1200 900" fill="none" role="img" aria-labelledby="title desc">
  <title>Cono Nocciola</title>
  <desc>Illustrazione del gelato Cono Nocciola</desc>
  
  <defs>
    <linearGradient id="bg-cono-nocciola" x1="0%" y1="0%" x2="100%" y2="100%">
      <stop offset="0%" stop-color="#d7b08b" />
      <stop offset="48%" stop-color="#c27a4d" />
      <stop offset="100%" stop-color="#a56a43" />
    </linearGradient>
    <linearGradient id="panel-cono-nocciola" x1="0%" y1="0%" x2="0%" y2="100%">
      <stop offset="0%" stop-color="rgba(255,255,255,0.88)" />
      <stop offset="100%" stop-color="rgba(255,255,255,0.42)" />
    </linearGradient>
    <linearGradient id="cone-cono-nocciola" x1="0%" y1="0%" x2="0%" y2="100%">
      <stop offset="0%" stop-color="#dba55f" />
      <stop offset="100%" stop-color="#9f6430" />
    </linearGradient>
    <filter id="shadow-cono-nocciola" x="-40%" y="-40%" width="180%" height="180%">
      <feDropShadow dx="0" dy="18" stdDeviation="16" flood-color="rgba(19,32,43,0.22)" />
    </filter>
  </defs>
  <rect width="1200" height="900" rx="48" fill="url(#bg-cono-nocciola)" />
  <circle cx="215" cy="175" r="128" fill="rgba(255,255,255,0.14)" />
  <circle cx="980" cy="210" r="94" fill="rgba(255,255,255,0.18)" />
  <circle cx="1025" cy="735" r="154" fill="rgba(255,255,255,0.10)" />
  <path d="M0 640C182 550 262 560 422 638C592 720 672 716 861 638C997 583 1106 573 1200 620V900H0Z" fill="rgba(255,255,255,0.18)" />
  <rect x="72" y="72" width="1056" height="756" rx="40" fill="url(#panel-cono-nocciola)" stroke="rgba(255,255,255,0.35)" />

  
  <g opacity="0.9">
    <text x="110" y="150" font-size="34" font-family="'Trebuchet MS', 'Segoe UI', sans-serif" font-weight="700" fill="#5b3628">CONO</text>
    <text x="110" y="215" font-size="70" font-family="'Trebuchet MS', 'Segoe UI', sans-serif" font-weight="800" fill="#fff">Cono Nocciola</text>
    <text x="110" y="275" font-size="28" font-family="'Trebuchet MS', 'Segoe UI', sans-serif" fill="rgba(255,255,255,0.92)">Illustrazione artigianale per il menu API</text>
  </g>

  
    <g filter="url(#shadow-cono-nocciola)">
      <ellipse cx="750" cy="726" rx="168" ry="30" fill="rgba(27,42,48,0.18)" />
      <circle cx="678" cy="382" r="78" fill="#d7b08b" />
      <circle cx="776" cy="358" r="86" fill="#a56a43" />
      <circle cx="863" cy="404" r="72" fill="#c27a4d" />
      <path d="M722 450L860 450L802 722Q793 754 765 754Q735 754 726 722Z" fill="url(#cone-cono-nocciola)" />
      <path d="M735 483L846 483" stroke="rgba(120,68,32,0.25)" stroke-width="7" />
      <path d="M725 540L836 540" stroke="rgba(120,68,32,0.25)" stroke-width="7" />
      <path d="M714 595L825 595" stroke="rgba(120,68,32,0.25)" stroke-width="7" />
      <path d="M702 650L813 650" stroke="rgba(120,68,32,0.25)" stroke-width="7" />
      <path d="M689 705L800 705" stroke="rgba(120,68,32,0.25)" stroke-width="7" />
      <path d="M730 454L842 710" stroke="rgba(120,68,32,0.22)" stroke-width="8" />
      <path d="M775 452L820 726" stroke="rgba(120,68,32,0.22)" stroke-width="8" />
      <path d="M826 454L756 730" stroke="rgba(120,68,32,0.22)" stroke-width="8" />
      <path d="M684 462C721 432 770 428 812 438" stroke="#5b3628" stroke-linecap="round" stroke-width="12" opacity="0.28" />
      <ellipse cx="666" cy="350" rx="18" ry="13" fill="#8c552f" />
        <ellipse cx="705" cy="322" rx="18" ry="13" fill="#a76b41" />
        <ellipse cx="839" cy="355" rx="18" ry="13" fill="#8c552f" />
    </g>
  
  <g opacity="0.86">
    <rect x="110" y="682" width="252" height="50" rx="25" fill="rgba(255,255,255,0.18)" />
    <text x="140" y="715" font-size="24" font-family="'Trebuchet MS', 'Segoe UI', sans-serif" font-weight="700" fill="#fff">GELATERIA NICE CREAM</text>
    <text x="112" y="782" font-size="26" font-family="'Trebuchet MS', 'Segoe UI', sans-serif" fill="rgba(255,255,255,0.94)">Immagine locale servita dalle API statiche</text>
  </g>
</svg>
