<?xml version="1.0" encoding="UTF-8"?>
<svg xmlns="http://www.w3.org/2000/svg" width="1200" height="900" viewBox="0 0 1200 900" fill="none" role="img" aria-labelledby="title desc">
  <title>Coppetta Cioccolato Fondente</title>
  <desc>Illustrazione del gelato Coppetta Cioccolato Fondente</desc>
  
  <defs>
    <linearGradient id="bg-coppetta-cioccolato-fondente" x1="0%" y1="0%" x2="100%" y2="100%">
      <stop offset="0%" stop-color="#5c3525" />
      <stop offset="48%" stop-color="#a5623d" />
      <stop offset="100%" stop-color="#2f1914" />
    </linearGradient>
    <linearGradient id="panel-coppetta-cioccolato-fondente" x1="0%" y1="0%" x2="0%" y2="100%">
      <stop offset="0%" stop-color="rgba(255,255,255,0.88)" />
      <stop offset="100%" stop-color="rgba(255,255,255,0.42)" />
    </linearGradient>
    <linearGradient id="cone-coppetta-cioccolato-fondente" x1="0%" y1="0%" x2="0%" y2="100%">
      <stop offset="0%" stop-color="#dba55f" />
      <stop offset="100%" stop-color="#9f6430" />
    </linearGradient>
    <filter id="shadow-coppetta-cioccolato-fondente" x="-40%" y="-40%" width="180%" height="180%">
      <feDropShadow dx="0" dy="18" stdDeviation="16" flood-color="rgba(19,32,43,0.22)" />
    </filter>
  </defs>
  <rect width="1200" height="900" rx="48" fill="url(#bg-coppetta-cioccolato-fondente)" />
  <circle cx="215" cy="175" r="128" fill="rgba(255,255,255,0.14)" />
  <circle cx="980" cy="210" r="94" fill="rgba(255,255,255,0.18)" />
  <circle cx="1025" cy="735" r="154" fill="rgba(255,255,255,0.10)" />
  <path d="M0 640C182 550 262 560 422 638C592 720 672 716 861 638C997 583 1106 573 1200 620V900H0Z" fill="rgba(255,255,255,0.18)" />
  <rect x="72" y="72" width="1056" height="756" rx="40" fill="url(#panel-coppetta-cioccolato-fondente)" stroke="rgba(255,255,255,0.35)" />

  
  <g opacity="0.9">
    <text x="110" y="150" font-size="34" font-family="'Trebuchet MS', 'Segoe UI', sans-serif" font-weight="700" fill="#d8b17d">COPPETTA</text>
    <text x="110" y="215" font-size="70" font-family="'Trebuchet MS', 'Segoe UI', sans-serif" font-weight="800" fill="#fff">Coppetta Cioccolato Fondente</text>
    <text x="110" y="275" font-size="28" font-family="'Trebuchet MS', 'Segoe UI', sans-serif" fill="rgba(255,255,255,0.92)">Illustrazione artigianale per il menu API</text>
  </g>

  
    <g filter="url(#shadow-coppetta-cioccolato-fondente)">
      <ellipse cx="760" cy="742" rx="190" ry="32" fill="rgba(27,42,48,0.18)" />
      <circle cx="684" cy="392" r="82" fill="#5c3525" />
      <circle cx="778" cy="360" r="90" fill="#2f1914" />
      <circle cx="864" cy="408" r="78" fill="#d8b17d" />
      <path d="M635 454H892L850 680C844 725 806 758 760 758C714 758 676 725 670 680Z" fill="#ffffff" opacity="0.95" />
      <path d="M648 470H880L848 669C843 703 805 731 760 731C716 731 678 703 672 669Z" fill="#a5623d" opacity="0.85" />
      <path d="M648 470H880" stroke="rgba(255,255,255,0.76)" stroke-width="12" stroke-linecap="round" />
      <path d="M690 540H832" stroke="rgba(255,255,255,0.48)" stroke-width="12" stroke-linecap="round" />
      <path d="M708 592H814" stroke="rgba(255,255,255,0.34)" stroke-width="12" stroke-linecap="round" />
      <circle cx="670" cy="365" r="6" fill="#d6b18a" />
        <circle cx="708" cy="336" r="5" fill="#d6b18a" />
        <circle cx="840" cy="346" r="5" fill="#d6b18a" />
        <circle cx="862" cy="386" r="6" fill="#d6b18a" />
    </g>
  
  <g opacity="0.86">
    <rect x="110" y="682" width="252" height="50" rx="25" fill="rgba(255,255,255,0.18)" />
    <text x="140" y="715" font-size="24" font-family="'Trebuchet MS', 'Segoe UI', sans-serif" font-weight="700" fill="#fff">GELATERIA NICE CREAM</text>
    <text x="112" y="782" font-size="26" font-family="'Trebuchet MS', 'Segoe UI', sans-serif" fill="rgba(255,255,255,0.94)">Immagine locale servita dalle API statiche</text>
  </g>
</svg>
