<?xml version="1.0" encoding="UTF-8"?>
<svg xmlns="http://www.w3.org/2000/svg" width="1200" height="900" viewBox="0 0 1200 900" fill="none" role="img" aria-labelledby="title desc">
  <title>Stecco Cioccolato e Mandorle</title>
  <desc>Illustrazione del gelato Stecco Cioccolato e Mandorle</desc>
  
  <defs>
    <linearGradient id="bg-stecco-cioccolato-mandorle" x1="0%" y1="0%" x2="100%" y2="100%">
      <stop offset="0%" stop-color="#7b4d33" />
      <stop offset="48%" stop-color="#d9b182" />
      <stop offset="100%" stop-color="#f3e6d5" />
    </linearGradient>
    <linearGradient id="panel-stecco-cioccolato-mandorle" x1="0%" y1="0%" x2="0%" y2="100%">
      <stop offset="0%" stop-color="rgba(255,255,255,0.88)" />
      <stop offset="100%" stop-color="rgba(255,255,255,0.42)" />
    </linearGradient>
    <linearGradient id="cone-stecco-cioccolato-mandorle" x1="0%" y1="0%" x2="0%" y2="100%">
      <stop offset="0%" stop-color="#dba55f" />
      <stop offset="100%" stop-color="#9f6430" />
    </linearGradient>
    <filter id="shadow-stecco-cioccolato-mandorle" x="-40%" y="-40%" width="180%" height="180%">
      <feDropShadow dx="0" dy="18" stdDeviation="16" flood-color="rgba(19,32,43,0.22)" />
    </filter>
  </defs>
  <rect width="1200" height="900" rx="48" fill="url(#bg-stecco-cioccolato-mandorle)" />
  <circle cx="215" cy="175" r="128" fill="rgba(255,255,255,0.14)" />
  <circle cx="980" cy="210" r="94" fill="rgba(255,255,255,0.18)" />
  <circle cx="1025" cy="735" r="154" fill="rgba(255,255,255,0.10)" />
  <path d="M0 640C182 550 262 560 422 638C592 720 672 716 861 638C997 583 1106 573 1200 620V900H0Z" fill="rgba(255,255,255,0.18)" />
  <rect x="72" y="72" width="1056" height="756" rx="40" fill="url(#panel-stecco-cioccolato-mandorle)" stroke="rgba(255,255,255,0.35)" />

  
  <g opacity="0.9">
    <text x="110" y="150" font-size="34" font-family="'Trebuchet MS', 'Segoe UI', sans-serif" font-weight="700" fill="#b99472">STECCO</text>
    <text x="110" y="215" font-size="70" font-family="'Trebuchet MS', 'Segoe UI', sans-serif" font-weight="800" fill="#fff">Stecco Cioccolato e Mandorle</text>
    <text x="110" y="275" font-size="28" font-family="'Trebuchet MS', 'Segoe UI', sans-serif" fill="rgba(255,255,255,0.92)">Illustrazione artigianale per il menu API</text>
  </g>

  
    <g filter="url(#shadow-stecco-cioccolato-mandorle)">
      <ellipse cx="774" cy="756" rx="166" ry="30" fill="rgba(27,42,48,0.18)" />
      <rect x="712" y="278" width="124" height="400" rx="62" fill="#7b4d33" />
      <rect x="712" y="278" width="124" height="270" rx="62" fill="#f3e6d5" opacity="0.88" />
      <path d="M742 680H807V794C807 814 792 830 775 830C757 830 742 814 742 794Z" fill="#c48f59" />
      <path d="M727 352C761 336 797 337 826 354" stroke="rgba(255,255,255,0.44)" stroke-width="10" stroke-linecap="round" />
      <path d="M727 416C761 401 796 402 826 418" stroke="#b99472" stroke-width="9" stroke-linecap="round" opacity="0.4" />
      <path d="M727 484C761 469 796 470 826 486" stroke="#b99472" stroke-width="9" stroke-linecap="round" opacity="0.4" />
      <ellipse cx="807" cy="396" rx="18" ry="9" fill="#ecd1b5" transform="rotate(22 807 396)" />
        <ellipse cx="750" cy="458" rx="18" ry="9" fill="#ecd1b5" transform="rotate(-14 750 458)" />
        <ellipse cx="836" cy="506" rx="18" ry="9" fill="#f0dac1" transform="rotate(14 836 506)" />
    </g>
  
  <g opacity="0.86">
    <rect x="110" y="682" width="252" height="50" rx="25" fill="rgba(255,255,255,0.18)" />
    <text x="140" y="715" font-size="24" font-family="'Trebuchet MS', 'Segoe UI', sans-serif" font-weight="700" fill="#fff">GELATERIA NICE CREAM</text>
    <text x="112" y="782" font-size="26" font-family="'Trebuchet MS', 'Segoe UI', sans-serif" fill="rgba(255,255,255,0.94)">Immagine locale servita dalle API statiche</text>
  </g>
</svg>
